{"title":"The.Crew.2008.DVDRiP.x264.DTS.MULTISUB.mkv-Zen_Bud","uid":5897924,"size":2001802017,"categoryP":"video","categoryS":"movies","magnet":"?xt=urn:btih:0f9052ad95b3dc3db55d3524284c878c06072f7d&amp;dn=The.Crew.2008.DVDRiP.x264.DTS.MULTISUB.mkv-Zen_Bud&amp;tr=udp%3A%2F%2Ftracker.openbittorrent.com%3A80&amp;tr=udp%3A%2F%2Fopen.demonii.com%3A1337&amp;tr=udp%3A%2F%2Ftracker.coppersurfer.tk%3A6969&amp;tr=udp%3A%2F%2Fexodus.desync.com%3A6969","seeders":0,"leechers":1,"uploader":"Zen_Bud","files":-1,"time":1287562727,"description":"\n******** The.Crew.2008.DVDRiP.x264.DTS.MULTISUB.mkv-Zen_Bud *********\n\nFormat                           : Matroska\nFile size                        : 1.86 GiB\nDuration                         : 1h 57mn\nOverall bit rate                 : 2 266 Kbps\nWriting application              : HandBrake svn3603\nWriting library                  : libmkv 0.6.4.1\n\nVideo\n\nFormat                           : AVC\nDuration                         : 1h 57mn\nBit rate                         : 1 485 Kbps\nWidth                            : 720 pixels\nHeight                           : 554 pixels\nDisplay aspect ratio             : 16:9\nStream size                      : 1.21 GiB (65%)\nWriting library                  : x264 core 107\n\nAudio\n\nFormat                           : DTS\nDuration                         : 1h 57mn\nBit rate                         : 755 Kbps\nChannel(s)                       : 6 channels\nChannel positions                : Front: L C R, Side: L R, LFE\nSampling rate                    : 48.0 KHz\nBit depth                        : 16 bits\nStream size                      : 636 MiB (33%)\nLanguage                         : English\n\nText #1\n\nLanguage                         : Danish\n\nText #2\nLanguage                         : Swedish\n\nText #3\nLanguage                         : Norwegian\n\nText #4\nLanguage                         : Finnish\n\nText #5\nLanguage                         : Icelandic\n\nMenu\n00:00:00.000                     : Chapter 1\n00:09:24.520                     : Chapter 2\n\n\n\nAs a major heist approaches and with betrayal all around him, \na respected crime boss has to summon all his street nous and killer instinct \nas he fights for survival. \n\n","torrent":{"xt":"urn:btih:0f9052ad95b3dc3db55d3524284c878c06072f7d","amp;dn":"The.Crew.2008.DVDRiP.x264.DTS.MULTISUB.mkv-Zen_Bud","amp;tr":["udp%3A%2F%2Ftracker.openbittorrent.com%3A80","udp%3A%2F%2Fopen.demonii.com%3A1337","udp%3A%2F%2Ftracker.coppersurfer.tk%3A6969","udp%3A%2F%2Fexodus.desync.com%3A6969"],"infoHash":"0f9052ad95b3dc3db55d3524284c878c06072f7d","infoHashBuffer":{"type":"Buffer","data":[15,144,82,173,149,179,220,61,181,93,53,36,40,76,135,140,6,7,47,125]},"announce":[],"urlList":[]}}